<svg width="390" height="390" viewBox="0 0 390 390" fill="none" xmlns="http://www.w3.org/2000/svg">
<path d="M0.01625 284.708H15.6163V227.143L37.2856 276.356C39.9588 282.49 43.615 284.659 50.7894 284.659C57.9637 284.659 61.4737 282.49 64.1469 276.356L85.8163 228.402V284.708H101.416V225.737C101.416 220.074 99.1656 217.328 94.5181 215.914C83.4113 212.42 75.9525 215.434 72.5806 222.999L50.3587 273.049L28.8356 222.999C25.6019 215.443 18.0131 212.42 6.89812 215.914C2.25062 217.328 0 220.066 0 225.729V284.7L0.01625 284.708Z" fill="white"/>
<path d="M109.208 237.908H124.808V270.855C124.686 272.48 125.328 276.794 132.852 276.908C136.687 276.973 155.772 276.908 156.008 276.908V237.908H171.608C171.673 237.908 171.608 286.398 171.608 286.601C171.689 298.561 156.756 300.105 149.89 300.308H109.216V292.508C109.297 292.508 148.111 292.516 148.224 292.508C157.064 291.574 156.016 286.707 156.016 285.228V284.708H131.544C117.975 284.586 109.322 278.606 109.224 271.789C109.208 271.156 109.517 238.201 109.208 237.908Z" fill="white"/>
<path d="M179.408 284.708H218.465C223.584 284.708 228.556 283.636 232.505 281.783C239.086 278.761 241.8 274.674 241.8 269.303V258.188C241.8 246.196 226.931 245.708 218.4 245.708H202.8C196.666 245.708 195.731 242.003 195 237.908V230.108C195.731 226.988 197.096 222.796 202.499 222.308C208.78 222.308 241.792 222.308 241.792 222.308V214.508H204.693C198.559 214.508 179.392 215.239 179.392 230.108V239.753C179.392 246.578 185.388 252.135 198.404 253.5C199.867 253.598 201.329 253.695 202.784 253.695C202.784 253.695 217.945 253.403 218.384 253.5C227.159 253.5 226.184 260.325 226.184 261.3V269.1C226.184 270.173 225.94 276.9 218.294 276.9C217.709 276.9 179.384 276.9 179.384 276.9V284.708H179.408Z" fill="white"/>
<path d="M327.6 268.775C327.6 278.192 332.922 283.473 347.035 284.53C348.351 284.619 349.676 284.7 351 284.7H390V276.9H353.966C345.914 276.9 343.2 273.52 343.2 268.686V214.5H327.6V268.775Z" fill="white"/>
<path d="M249.47 269.108V230.108C249.47 221.821 253.533 216.101 265.038 214.508H270.498H298.505H302.77C314.275 216.101 319.67 221.813 319.67 230.108V268.962C319.67 275.681 317.923 279.289 312.228 281.629L324.318 292.5H306.768L298.074 284.7H287.861L270.506 284.798C267.995 284.798 265.346 284.448 262.438 283.652C253.711 281.271 249.47 276.689 249.47 269.108ZM265.07 269.108C265.866 272.903 268.913 276.908 274.333 276.908H289.478L280.8 269.108H298.472L302.689 273.024C302.689 273.024 304.2 271.789 304.2 269.108C304.2 266.427 304.07 230.108 304.07 230.108C303.274 226.582 299.699 222.308 294.418 222.308H274.341C268.255 222.308 265.078 226.761 265.078 230.904L265.07 269.108Z" fill="white"/>
<path d="M375.367 206.286C366.99 206.058 360.596 206.838 355.127 209.138C353.576 209.796 351.097 209.812 350.837 211.762C351.691 212.656 351.821 213.996 352.503 215.093C353.803 217.206 356.013 220.041 357.979 221.52C360.132 223.145 362.351 224.884 364.65 226.289C368.745 228.784 373.319 230.214 377.268 232.716C379.592 234.187 381.899 236.056 384.174 237.713C385.296 238.542 386.043 239.818 387.506 240.338C387.506 240.256 387.506 240.183 387.506 240.102C386.742 239.127 386.539 237.786 385.84 236.763C384.808 235.731 383.776 234.699 382.744 233.667C379.722 229.653 375.871 226.119 371.792 223.194C368.534 220.854 361.246 217.693 359.881 213.907C359.799 213.826 359.726 213.753 359.637 213.663C361.944 213.403 364.65 212.566 366.779 211.998C370.362 211.039 373.555 211.291 377.252 210.332C378.917 209.853 380.583 209.381 382.249 208.902C382.249 208.585 382.249 208.268 382.249 207.951C380.38 206.034 379.039 203.499 377.008 201.76C371.67 197.218 365.852 192.684 359.864 188.898C356.541 186.802 352.43 185.437 348.912 183.658C347.726 183.056 345.646 182.748 344.866 181.756C343.013 179.4 342.014 176.402 340.584 173.664C337.594 167.911 334.652 161.623 332.012 155.569C330.2 151.442 329.022 147.363 326.771 143.658C315.957 125.881 304.314 115.148 286.292 104.601C282.457 102.359 277.834 101.473 272.951 100.311C270.327 100.157 267.711 99.9945 265.086 99.832C263.486 99.1576 261.828 97.2076 260.317 96.257C254.345 92.4789 239.021 84.2726 234.601 95.0626C231.806 101.871 238.777 108.518 241.272 111.971C243.019 114.392 245.261 117.106 246.512 119.836C247.333 121.623 247.479 123.419 248.178 125.312C249.909 129.976 252.647 135.289 254.889 139.604C256.019 141.789 257.27 144.081 258.7 146.031C259.577 147.225 261.081 147.753 261.324 149.606C259.854 151.661 259.772 154.854 258.944 157.471C255.222 169.211 256.628 183.796 262.039 192.473C263.697 195.138 267.613 200.858 272.992 198.664C277.696 196.747 276.648 190.808 277.989 185.567C278.289 184.381 278.102 183.511 278.704 182.715C278.704 182.796 278.704 182.869 278.704 182.959C280.134 185.811 281.556 188.679 282.994 191.531C286.171 196.641 291.801 201.979 296.562 205.587C299.032 207.456 300.982 210.689 304.184 211.778C304.184 211.697 304.184 211.624 304.184 211.534C304.102 211.534 304.029 211.534 303.94 211.534C303.322 210.568 302.347 210.169 301.559 209.389C299.699 207.561 297.619 205.294 296.083 203.198C291.744 197.308 287.909 190.856 284.416 184.145C282.75 180.936 281.296 177.409 279.89 174.143C279.346 172.884 279.354 170.983 278.224 170.333C276.681 172.721 274.422 174.655 273.227 177.474C271.326 181.984 271.074 187.493 270.376 193.188C269.953 193.334 270.14 193.237 269.896 193.424C266.581 192.619 265.411 189.215 264.176 186.282C261.056 178.872 260.479 166.944 263.226 158.421C263.932 156.211 267.142 149.264 265.85 147.225C265.232 145.186 263.185 144.008 262.047 142.456C260.626 140.538 259.22 138.003 258.237 135.785C255.686 130.008 253.264 123.289 250.575 117.447C249.291 114.652 247.122 111.833 245.334 109.354C243.36 106.608 241.142 104.585 239.614 101.262C239.07 100.084 238.331 98.1907 239.135 96.972C239.395 96.1514 239.752 95.8101 240.565 95.542C241.946 94.4695 245.789 95.8914 247.236 96.4926C251.054 98.077 254.239 99.5882 257.473 101.733C259.025 102.765 260.593 104.756 262.47 105.308C263.185 105.308 263.9 105.308 264.615 105.308C267.971 106.08 271.724 105.552 274.852 106.503C280.394 108.184 285.35 110.801 289.851 113.644C303.582 122.314 314.803 134.648 322.481 149.37C323.716 151.743 324.252 154.001 325.333 156.512C327.527 161.582 330.297 166.798 332.475 171.754C334.652 176.703 336.781 181.691 339.861 185.811C341.486 187.972 347.742 189.134 350.577 190.336C352.568 191.181 355.834 192.051 357.719 193.188C361.327 195.366 364.821 197.958 368.192 200.33C369.915 201.524 375.107 204.133 375.367 206.286Z" fill="white"/>
<path d="M268.921 115.562C267.174 115.53 265.939 115.749 264.631 116.041C264.631 116.123 264.631 116.196 264.631 116.285C264.713 116.285 264.786 116.285 264.875 116.285C265.712 117.991 267.174 119.105 268.206 120.575C269.003 122.241 269.791 123.906 270.587 125.572C270.668 125.491 270.741 125.418 270.823 125.336C272.293 124.296 272.976 122.639 272.968 120.096C272.374 119.47 272.285 118.69 271.773 117.951C271.091 116.951 269.774 116.391 268.921 115.562Z" fill="white"/>
</svg>
