<svg width="48" height="48" viewBox="0 0 48 48" fill="none" xmlns="http://www.w3.org/2000/svg">
<path d="M42 6V42H6V6H42ZM14.2275 22V25.2637H18.9844V40H22.7529V25.2637H27.4902V22H14.2275ZM39.3262 22.5752C39.3262 22.5752 28.668 19.663 28.668 27.0439C28.668 32.4729 35.9831 32.473 35.9834 34.9219C35.9834 35.1539 36.081 36.8418 33.5 36.8418C30.919 36.8418 28.7666 35.2197 28.7666 35.2197V39.1582C28.7666 39.1582 40.0215 42.7988 40.0215 34.5898C40.0213 29.261 32.6396 29.5259 32.6396 26.8779C32.6397 25.852 33.367 24.8917 35.3867 24.8916C37.4067 24.8916 39.1943 26.084 39.1943 26.084L39.3262 22.5752Z" fill="white"/>
</svg>
