<svg width="480" height="480" viewBox="0 0 480 480" fill="none" xmlns="http://www.w3.org/2000/svg">
<path d="M240 40C292 40 341 50 373 59C397 65 414 86 417 110C417.73 122.416 418.991 137.5 419.619 154.082C419.635 154.47 419.65 154.858 419.665 155.248C419.671 155.412 419.677 155.576 419.683 155.74C419.884 161.264 420 167.018 420 173C420 378 240 440 240 440C240 440 60 378 60 173C60 148 62 127 64 110C66 86 84 65 107 59C136.5 50.7031 180.447 41.5563 227.874 40.1777C231.893 40.0609 235.937 40 240 40ZM240 100C240 100 180 150 180 230C180 282 213 315 230 330V360H250V330C267 315 300 282 300 230C300 150 240 100 240 100Z" fill="white"/>
</svg>
