<svg width="480" height="480" viewBox="0 0 480 480" fill="none" xmlns="http://www.w3.org/2000/svg">
<path d="M420 420H60V60H420V420ZM220 220V325.89C220 342.14 213.91 346.32 203.33 346.32C192.27 346.32 184.581 339.35 179.521 330.29L153.33 346.32C160.91 362.54 179.51 380 205.28 380C233.8 380 253.33 364.68 253.33 331.01V220H220ZM324.6 220.01C295.77 220.01 277.32 238.35 277.32 262.45C277.32 288.6 292.81 300.98 316.1 310.86L324.17 314.3C338.89 320.71 346.15 324.62 346.15 335.63C346.15 344.83 339.13 351.48 325.75 351.48C309.82 351.48 302.3 340.71 295.38 329.47L270 346.32C279.48 364.95 296.51 380 326.5 380C357.16 380 380 364.15 380 335.23C380 308.391 364.52 296.45 337.07 284.76L329 281.32C315.15 275.35 309.15 271.45 309.15 261.81C309.151 254.01 315.14 248.04 324.6 248.04C333.869 248.04 339.85 251.93 345.38 261.81L370.521 245.74C359.881 227.12 345.13 220.01 324.6 220.01Z" fill="white"/>
</svg>
