<svg width="48" height="48" viewBox="0 0 48 48" fill="none" xmlns="http://www.w3.org/2000/svg">
<path d="M24 34C11.1 34 1 29.6 1 24C1 18.4 11.1 14 24 14C36.9 14 47 18.4 47 24C47 29.6 36.9 34 24 34ZM24 16C11.4 16 3 20.1 3 24C3 27.9 11.4 32 24 32C36.6 32 45 27.9 45 24C45 20.1 36.6 16 24 16Z" fill="white"/>
<path d="M15.1001 44.6C14.1001 44.6 13.3001 44.4 12.5001 43.9C7.60008 41.1 8.90008 30.2 15.3001 19C18.3001 13.8 22.0001 9.39996 25.6001 6.59996C29.5001 3.59996 33.0001 2.69996 35.4001 4.09996C37.9001 5.49996 38.8001 8.99996 38.2001 13.9C37.6001 18.5 35.6001 23.9 32.6001 29.1C29.6001 34.3 25.9001 38.7 22.3001 41.5C19.7001 43.5 17.2001 44.6 15.1001 44.6ZM32.9001 5.39996C31.3001 5.39996 29.2001 6.29996 26.9001 8.09996C23.5001 10.8 20.0001 15 17.1001 20C10.8001 30.9 10.2001 40.3 13.5001 42.2C15.2001 43.2 18.0001 42.3 21.1001 39.9C24.5001 37.2 28.0001 33 30.9001 28C33.8001 23 35.7001 17.9 36.3001 13.6C36.8001 9.59996 36.2001 6.79996 34.5001 5.79996C34.0001 5.59996 33.5001 5.39996 32.9001 5.39996Z" fill="white"/>
<path d="M33.0001 44.5999C28.0001 44.5999 20.8001 38.4999 15.4001 28.9999C8.90006 17.7999 7.60006 6.89995 12.5001 4.09995C17.4001 1.29995 26.2001 7.79995 32.7001 18.9999C35.7001 24.1999 37.7001 29.5999 38.3001 34.1999C39.0001 39.0999 38.0001 42.4999 35.5001 43.9999C34.7001 44.3999 33.9001 44.5999 33.0001 44.5999ZM13.5001 5.79995C10.2001 7.69995 10.8001 17.0999 17.1001 27.9999C23.4001 38.8999 31.2001 44.0999 34.5001 42.1999C36.2001 41.1999 36.8001 38.4 36.3001 34.4C35.7001 30.0999 33.8001 24.9999 30.9001 19.9999C24.6001 9.09995 16.8001 3.89995 13.5001 5.79995Z" fill="white"/>
<path d="M24 28C26.2091 28 28 26.2091 28 24C28 21.7909 26.2091 20 24 20C21.7909 20 20 21.7909 20 24C20 26.2091 21.7909 28 24 28Z" fill="white"/>
</svg>
