<svg width="480" height="480" viewBox="0 0 480 480" fill="none" xmlns="http://www.w3.org/2000/svg">
<path d="M240.109 30.0039C242.202 30.0142 244.293 30.315 246.316 30.9072C248.004 31.3812 249.626 32.0391 251.13 32.8809C284.56 51.6009 384.839 107.47 418.27 126.19C420.969 127.71 423.03 129.54 424.87 131.95L424.863 131.953C425.037 132.154 425.205 132.359 425.371 132.565C427.301 134.575 428.411 136.958 429.049 139.455C429.67 141.439 430 143.527 430 145.66V334.33C430 341.95 425.82 348.991 419.03 352.801C385.48 371.631 284.52 428.311 250.96 447.141C244.17 450.95 235.81 450.95 229.03 447.141C195.48 428.311 94.5202 371.631 60.96 352.801C54.1802 348.991 50.0003 341.961 50 334.341V144.96C50.0002 137.38 54.1706 130.381 60.9404 126.601C94.3706 107.881 194.99 51.5309 228.42 32.8008C231.9 30.8528 236.013 29.9289 240.109 30.0039ZM240 100.001C162.73 100.001 100 162.731 100 240.001C100 317.271 162.73 380.001 240 380.001C292.106 380.001 337.598 351.474 361.703 309.2L300.357 275.448C288.183 296.116 265.699 310.001 240 310.001C201.37 310.001 170 278.631 170 240.001C170 201.361 201.36 170.001 240 170.001C265.276 170.001 287.443 183.426 299.749 203.532L360.54 168.796C336.153 127.627 291.278 100.001 240 100.001ZM310 210V230H290V250H310V270H330V250H350V230H330V210H310ZM380 210V230H360V250H380V270H400V250H420V230H400V210H380Z" fill="white"/>
</svg>
