<svg width="48" height="48" viewBox="0 0 48 48" fill="none" xmlns="http://www.w3.org/2000/svg">
<path d="M43.9997 11.11V36.89C43.9997 38.16 43.2097 39.29 42.0197 39.71L33.1997 43.85L33.9997 33V15L33.1997 4.15002L42.0197 8.29002C43.2097 8.71002 43.9997 9.84002 43.9997 11.11Z" fill="white"/>
<path d="M8.99992 33.896L33.9999 15V5.35297C33.9999 4.15497 32.5179 3.59497 31.7249 4.49297L4.65792 29.239C3.75792 30.069 3.80892 31.506 4.76492 32.271C4.76492 32.271 6.08892 33.503 6.56792 33.845C7.30392 34.37 8.27092 34.43 8.99992 33.896Z" fill="white"/>
<path d="M8.99992 14.1039L33.9999 32.9999V42.6469C33.9999 43.8449 32.5179 44.4049 31.7249 43.5069L4.65792 18.7609C3.75792 17.9309 3.80892 16.4939 4.76492 15.7289C4.76492 15.7289 6.08892 14.4969 6.56792 14.1549C7.30392 13.6299 8.27092 13.5699 8.99992 14.1039Z" fill="white"/>
</svg>
