<svg width="404" height="404" viewBox="0 0 404 404" fill="none" xmlns="http://www.w3.org/2000/svg">
<path d="M306.998 58.917C327.492 58.9171 342.65 76.8608 341.969 96.3115C341.321 115.005 342.163 139.212 348.257 158.957C354.367 178.761 364.678 191.277 381.562 192.885V211.124C364.678 212.732 354.376 225.247 348.257 245.052C342.163 264.789 341.321 289.003 341.969 307.696C342.642 327.139 327.484 345.083 306.998 345.083H97.0361C76.5501 345.083 61.3829 327.139 62.0645 307.688C62.7125 288.995 61.871 264.788 55.7773 245.043C49.6668 225.239 39.3311 212.723 22.4473 211.115V192.876C39.331 191.268 49.6584 178.753 55.7773 158.949C61.8626 139.212 62.7122 115.005 62.0557 96.3115C61.3826 76.8608 76.5417 58.917 97.0361 58.917H306.998ZM146.871 278.424H209.785C226.13 278.424 239.707 274.434 249.032 266.876C258.366 259.309 263.307 248.3 263.307 235.035C263.298 214.995 249.074 199.946 227.864 197.488V197.253C243.46 194.56 255.631 179.94 255.631 163.839C255.631 152.46 251.254 142.814 242.972 135.963C234.715 129.129 223.134 125.518 209.466 125.518H146.871V278.424ZM203.414 209.02C226.274 209.02 237.854 217.276 237.854 233.562C237.854 249.823 226.433 258.417 204.819 258.417H171.775V209.02H203.414ZM203.624 145.524C221.097 145.524 230.718 153.192 230.718 167.113C230.726 182.053 219.296 190.284 198.549 190.284H171.775V145.524H203.624Z" fill="white"/>
</svg>
