<svg width="243" height="243" viewBox="0 0 243 243" fill="none" xmlns="http://www.w3.org/2000/svg">
<path d="M131.625 86.0625H91.125C71.5534 86.0625 55.6875 70.1966 55.6875 50.625C55.6875 31.0534 71.5534 15.1875 91.125 15.1875H131.625V86.0625Z" fill="white"/>
<path d="M126.562 156.938H91.125C71.5534 156.938 55.6875 141.072 55.6875 121.5C55.6875 101.928 71.5534 86.0625 91.125 86.0625H126.562V156.938Z" fill="white"/>
<path d="M91.125 227.812C71.5534 227.812 55.6875 211.947 55.6875 192.375C55.6875 172.803 71.5534 156.938 91.125 156.938H126.562V192.375C126.562 211.947 110.697 227.812 91.125 227.812Z" fill="white"/>
<path d="M162 86.0625H126.562V15.1875H162C181.572 15.1875 197.438 31.0534 197.438 50.625C197.438 70.1966 181.572 86.0625 162 86.0625Z" fill="white"/>
<path d="M162 156.938C181.572 156.938 197.438 141.072 197.438 121.5C197.438 101.928 181.572 86.0625 162 86.0625C142.428 86.0625 126.562 101.928 126.562 121.5C126.562 141.072 142.428 156.938 162 156.938Z" fill="white"/>
</svg>
