<svg width="480" height="480" viewBox="0 0 480 480" fill="none" xmlns="http://www.w3.org/2000/svg">
<path d="M172.04 191.22L122.97 218.37C121.13 219.38 120 221.26 120 223.29V277.62C120 279.65 121.13 281.52 122.97 282.54L172.05 309.71C173.88 310.72 176.15 310.72 177.98 309.71L227.05 282.54C228.87 281.52 230 279.65 230 277.62V223.29C230 221.26 228.87 219.39 227.03 218.37L177.97 191.22C177.05 190.71 176.02 190.46 175 190.46C173.97 190.46 172.95 190.71 172.03 191.22" fill="white"/>
<path d="M424.51 240.13L416.33 244.65C416.02 244.82 415.84 245.13 415.84 245.47V254.53C415.84 254.87 416.03 255.18 416.33 255.35L424.51 259.88C424.82 260.05 425.19 260.05 425.5 259.88L433.68 255.35C433.98 255.18 434.17 254.87 434.17 254.53V245.47C434.17 245.13 433.98 244.82 433.67 244.65L425.49 240.13C425.34 240.04 425.17 240 425 240C424.83 240 424.66 240.04 424.51 240.13Z" fill="white"/>
<path d="M357.51 133.64L333.62 120.31C332.87 119.89 331.95 119.9 331.21 120.34C330.47 120.78 330.01 121.57 330.01 122.43L330 202.95L307.97 190.76C307.05 190.25 306.02 190 305 190C303.98 190 302.95 190.25 302.03 190.76H302.04L252.97 217.91C251.13 218.92 250 220.8 250 222.82V277.15C250 279.18 251.13 281.05 252.97 282.07L302.05 309.24C303.88 310.25 306.15 310.25 307.98 309.24L357.05 282.07C358.87 281.06 360 279.18 360 277.15V137.88C360 136.12 359.04 134.5 357.51 133.64ZM328.66 264.58L306.36 276.93C305.53 277.39 304.5 277.39 303.67 276.93L281.36 264.58C280.51 264.12 280 263.26 280 262.34V237.64C280 236.72 280.51 235.87 281.35 235.4L303.66 223.06C304.08 222.83 304.53 222.72 305 222.72C305.47 222.72 305.93 222.84 306.35 223.06L328.65 235.4C329.49 235.87 330 236.73 330 237.65V262.35C330 263.26 329.49 264.12 328.66 264.58Z" fill="white"/>
<path d="M172.04 191.22L120 277.62C120 279.65 121.13 281.52 122.97 282.54L172.05 309.71C173.88 310.72 176.15 310.72 177.98 309.71L230 223.29C230 221.26 228.87 219.39 227.03 218.37L177.97 191.22C177.05 190.71 176.02 190.46 175 190.46C173.97 190.46 172.95 190.71 172.03 191.22" fill="white"/>
<path d="M172.04 191.22L122.97 218.37C121.13 219.38 120 221.26 120 223.29L172.04 309.71C173.87 310.72 176.14 310.72 177.97 309.71L227.04 282.54C228.87 281.52 230 279.65 230 277.62L177.97 191.22C177.05 190.71 176.02 190.46 175 190.46C173.97 190.46 172.95 190.71 172.03 191.22" fill="white"/>
<path d="M477.03 217.91L427.97 190.76C427.05 190.25 426.02 190 425 190C423.98 190 422.95 190.25 422.03 190.76L372.97 217.91C371.14 218.92 370 220.84 370 222.94V277.05C370 279.14 371.14 281.07 372.97 282.08L422.05 309.25C423.89 310.27 426.14 310.27 427.98 309.25L450.61 296.72C452.68 295.57 452.67 292.6 450.59 291.46L401.35 264.59C400.52 264.12 400 263.25 400 262.31V237.65C400 236.73 400.5 235.88 401.3 235.44L423.65 223.08H423.64C424.06 222.85 424.52 222.74 424.99 222.74C425.46 222.74 425.92 222.86 426.34 223.08L448.69 235.45C449.49 235.89 449.99 236.74 449.99 237.66V257.78C449.99 258.64 450.45 259.44 451.2 259.87C451.95 260.29 452.87 260.29 453.62 259.86L477.6 245.93C479.08 245.07 480 243.48 480 241.76V222.96C480 220.85 478.86 218.92 477.03 217.91Z" fill="white"/>
<path d="M107.03 217.91L57.97 190.76C57.05 190.25 56.02 190 55 190C53.98 190 52.95 190.25 52.03 190.76L2.97 217.91C1.14 218.92 0 220.84 0 222.94V297.59C0 298.45 0.46 299.25 1.21 299.68C1.96 300.1 2.88 300.1 3.63 299.67L27.61 285.74C29.09 284.88 30 283.29 30 281.57V237.64C30 236.72 30.5 235.87 31.3 235.43L53.65 223.07C54.07 222.84 54.53 222.73 55 222.73C55.47 222.73 55.93 222.85 56.35 223.07L78.7 235.44C79.5 235.88 80 236.73 80 237.65V281.58C80 283.3 80.91 284.89 82.4 285.75L106.38 299.68C107.13 300.11 108.05 300.11 108.8 299.69C109.54 299.25 110 298.45 110 297.59V222.95C110 220.85 108.86 218.92 107.03 217.91Z" fill="white"/>
</svg>
