<svg width="480" height="480" viewBox="0 0 480 480" fill="none" xmlns="http://www.w3.org/2000/svg">
<path d="M113.6 29.9395C139.2 29.9395 165.08 38.0101 182.28 44.79L194.79 49.7197C207.74 43.3697 222.27 39.9902 238.2 39.9902L239.719 40H240.179C245.359 40.09 250.33 40.5199 255.21 41.1299L291.04 33.3896C300.74 31.2897 310.38 30.15 319.67 30L322.02 29.9902C346.99 29.9903 394.12 36.6706 429.13 81.4004C455.699 115.351 428.87 213.14 387.54 283.54C392.85 283.3 398.88 282.59 405.96 281.13C409.82 280.33 413.21 279.94 416.31 279.94C431.48 279.941 439 289.61 440.83 297.9C445.589 319.48 418.19 334.76 406.2 340.32C393.66 346.15 375.11 350.06 360.04 350.06C358.75 350.06 357.47 350.039 356.23 349.979L355.81 349.96L355.39 349.92L351.03 349.54L350 349.44V391.11L349.92 391.979C348.68 406.169 345.46 424.69 331.53 442.24C318.66 458.45 299.95 468.82 281.49 469.96C280.53 470.02 279.58 470.05 278.65 470.05C256.2 470.05 238.05 454.3 227.54 425.71C223.85 415.68 221.399 402.89 220.429 388.7L220.38 387.95L220.39 387.2C220.49 372.96 220.54 361.82 220.55 353.02C210.57 357.769 198.99 360.4 186.15 360.4C175.63 360.4 166.849 358.77 161.969 357.62C154.58 356.54 146.65 353.82 140.52 349.22C132.49 356.15 123.9 359.77 114.89 359.99L114.25 360H114C44.6105 360 20.1305 153.094 20.03 151C18 110.54 26.9604 79.1504 46.6404 57.6904C62.4104 40.5005 84.0698 30.9296 109.29 30.0195C110.73 29.9695 112.16 29.9395 113.6 29.9395ZM239.79 60C179.38 59.0201 159.53 113.92 153.07 146.72C161.97 142.95 172.13 140.66 181.429 140.66H181.86C204.76 140.83 220.51 153.05 225.09 174.2C228.44 189.72 230.05 203.3 230.01 215.73C229.909 242.92 224.43 257.22 219.59 269.84L218.05 273.92C216.81 277.26 215.5 280.37 214.26 283.29C213 286.27 211.89 288.921 211.08 291.311C215.92 292.411 219.72 293.96 222.33 295.11L223.84 295.771C224.31 295.97 224.78 296.2 225.21 296.46C233.69 301.62 238.97 309.55 240.1 318.79C240.71 323.77 240.61 357.72 240.4 387.34C241.27 400.19 243.45 410.98 246.33 418.8C250.42 429.94 260.64 451.21 280.27 449.99C293.97 449.14 307.14 440.8 315.88 429.8C325.26 417.99 328.72 404.93 330.02 390.22V340H330C330 337.95 330.119 336.24 330.179 334.351C330.079 331.841 330 330 330 330C330 330 330.12 329.91 330.32 329.78C331.81 303.05 339.18 292.75 347.07 286.88C345.97 285.35 344.7 283.7 343.51 282.13C340.18 277.76 336.029 272.339 331.59 265.39L330.77 263.811C330.1 262.171 328.48 259.34 326.42 255.62C314.59 234.22 289.97 189.7 306.82 161.58C314.2 149.26 328.04 142.16 348.03 140.41C339.86 117.18 309.25 61.1502 239.85 60H239.79ZM199.96 310C198.69 310.1 197.43 310.19 196.16 310.19C195.64 310.19 195.13 310.12 194.61 310.1C189.87 313.75 183.13 316.57 166.45 320C136.65 327.59 154.24 336.55 165.67 337.94C176.73 340.71 203.02 344.08 220.48 329.85C220.43 325.37 220.35 322.291 220.23 321.19C219.86 318.211 218.25 315.8 215.31 313.87L214.23 313.4C210.62 311.81 206.53 310 200 310H199.96ZM174.94 63.3896C159.32 57.2396 133.88 49.13 110 50C72.5798 51.3601 36.3598 77.2401 39.9998 150C41.3698 177.3 72.2201 341.03 114.4 340C120.43 339.85 126.69 335.98 133.12 328.24C143.29 316.01 153.17 304.92 160.2 297.2C157.05 294.81 154.01 292.17 151.14 289.17C135.01 272.34 127.15 249.7 130.1 228.61C132.95 208.26 131.339 188.34 130.469 177.63C130.179 174.06 129.99 171.4 130 169.93C130 169.85 130.02 169.78 130.03 169.7C130.03 169.66 130.01 169.63 130.01 169.59C131.22 139.38 142.87 91.7196 174.94 63.3896ZM364.31 299.45C363.31 300.17 362.31 300.78 361.38 301.35C357.66 303.6 351.77 307.18 350.33 329.17C351.16 329.33 351.89 329.42 352.79 329.61L357.14 330C370.34 330.6 387.63 326.9 397.77 322.19C419.62 312.05 431.53 296.27 410 300.71C383.35 306.21 370.53 303.28 364.31 299.45ZM185.66 160.88C170.01 159.14 153.401 167.32 150.06 171.85C150.13 172.95 150.259 174.361 150.389 176.021C151.319 187.491 153.04 208.86 149.89 231.39C147.81 246.24 153.82 263.08 165.56 275.34C173.13 283.24 181.97 288.24 190.69 289.72C191.8 284.94 193.78 280.28 195.82 275.47C196.95 272.82 198.15 270 199.28 266.95L200.9 262.68C205.33 251.13 209.9 239.18 209.99 215.65C210.03 206.6 208.92 196.27 206.81 185.01C203.89 188.03 199.28 190.67 194.19 189.85C185.91 188.51 179.561 178.521 180.02 174.771C180.46 171.031 187.53 169.08 195.8 170.42C198.67 170.89 201.28 171.7 203.48 172.7C200.28 165.82 194.49 161.85 185.66 160.88ZM319.99 50C310.78 50.15 302.41 51.3904 295.26 52.9404C346.02 77.5404 368.63 130.261 370.23 147.311C370.38 148.85 370.249 150.17 370.01 151.39C370.32 160.59 369.33 169.52 368.32 178.16C367.58 184.52 366.82 191.09 366.61 197.68C366.4 204.13 367.31 210.5 368.27 217.24C370.52 233.02 372.86 250.83 360.62 271.61C362.87 274.57 364.849 277.321 366.429 279.98C412.529 205.23 431.11 116.37 413.38 93.7197C386.55 59.44 349.41 49.52 319.99 50ZM349.84 160.35C336.95 161.42 328.39 165.14 324.33 171.43C326.01 170.86 327.91 170.41 330.01 170.14C338.929 168.98 345.44 171.55 346.19 176.51C346.74 180.14 343.66 183.56 342.31 184.87C339.54 187.56 336.05 189.29 332.5 189.75C331.86 189.83 331.21 189.87 330.58 189.87C327.05 189.87 323.68 188.66 321.09 186.87C322.21 206.6 336.76 232.99 343.92 245.94C345.45 248.71 346.63 250.92 347.61 252.82C351.54 241.63 350.089 231.43 348.469 220.07C347.429 212.78 346.36 205.23 346.62 197.04C346.85 189.62 347.67 182.62 348.46 175.85C349.08 170.52 349.56 165.399 349.84 160.35Z" fill="white"/>
</svg>
