<svg width="480" height="480" viewBox="0 0 480 480" fill="none" xmlns="http://www.w3.org/2000/svg">
<path d="M240.109 30.0039C242.202 30.0142 244.293 30.314 246.316 30.9062C248.004 31.3802 249.626 32.0382 251.13 32.8799C284.56 51.5998 384.839 107.47 418.27 126.19C420.97 127.71 423.03 129.54 424.87 131.95L424.863 131.953C428.13 135.734 430 140.566 430 145.66V334.33C430 341.95 425.82 348.99 419.03 352.8C385.48 371.63 284.52 428.31 250.96 447.14C244.17 450.95 235.81 450.95 229.03 447.14C195.48 428.31 94.52 371.63 60.96 352.8C54.18 348.99 50 341.96 50 334.34V144.96C50 137.38 54.1705 130.38 60.9404 126.6C94.371 107.879 194.99 51.5297 228.42 32.7998C231.9 30.8518 236.013 29.9289 240.109 30.0039ZM240 100C162.73 100 100 162.73 100 240C100 317.27 162.73 380 240 380C292.106 380 337.598 351.473 361.703 309.2L300.357 275.448C288.183 296.116 265.699 310 240 310C201.37 310 170 278.63 170 240C170 201.36 201.36 170 240 170C265.276 170 287.443 183.426 299.749 203.532L360.541 168.796C336.154 127.627 291.279 100 240 100Z" fill="white"/>
</svg>
