<svg width="480" height="480" viewBox="0 0 480 480" fill="none" xmlns="http://www.w3.org/2000/svg">
<path d="M240.47 50C224.92 50.05 214.14 51.42 201.11 53.67C162.63 60.37 155.62 74.44 155.62 100.37V140H245.62V160H152.2H108.7C82.34 160 59.27 172.42 51.96 202.19C43.7 236.36 43.33 257.76 51.96 293.44C58.51 320.05 72.94 340 99.31 340H135.63V288.96C135.63 259.3 162.49 230 193.27 230H265.63C290.86 230 315.63 211.38 315.63 186.23V100.37C315.63 75.98 298.04 57.74 273.45 53.65C274.06 53.59 255.89 49.94 240.47 50ZM190.63 90C198.84 90 205.63 96.77 205.63 105.02C205.63 113.35 198.84 120 190.63 120C182.26 120 175.63 113.36 175.63 105.02C175.63 96.8 182.26 90 190.63 90Z" fill="white"/>
<path d="M230.78 430C246.33 429.95 257.11 428.58 270.14 426.33C308.62 419.63 315.63 405.56 315.63 379.63V340H225.63V320H319.06H362.56C388.92 320 411.99 307.58 419.3 277.81C427.56 243.64 427.93 222.24 419.3 186.56C412.74 159.95 398.31 140 371.94 140H335.62V191.04C335.62 220.7 308.76 250 277.98 250H205.62C180.39 250 155.62 268.62 155.62 293.77V379.63C155.62 404.02 173.21 422.26 197.8 426.35C197.19 426.41 215.36 430.06 230.78 430ZM280.63 390C272.42 390 265.63 383.23 265.63 374.98C265.63 366.65 272.42 360 280.63 360C289 360 295.63 366.64 295.63 374.98C295.63 383.2 288.99 390 280.63 390Z" fill="white"/>
</svg>
