<svg width="376" height="376" viewBox="0 0 376 376" fill="none" xmlns="http://www.w3.org/2000/svg">
<path d="M188 47L140.922 96.7417L93.765 146.405L47 195.833V47H188Z" fill="white"/>
<path d="M188 47H187.687L47 195.598V195.833V196.538V329L115.072 260.928L163.482 212.518L211.97 164.03L260.458 115.542L329 47H188Z" fill="white"/>
<path d="M115.072 260.928L47 329V196.538L115.072 260.928Z" fill="white"/>
<path d="M163.482 212.518L115.072 260.928L47 196.538V195.833L93.765 146.405L163.482 212.518Z" fill="white"/>
<path d="M211.97 164.03L163.482 212.518L93.765 146.405L140.922 96.7417L211.97 164.03Z" fill="white"/>
<path d="M260.458 115.542L211.97 164.03L140.922 96.7417L188 47L260.458 115.542Z" fill="white"/>
<path d="M329 47L260.458 115.542L188 47H329Z" fill="white"/>
<path d="M90.1617 150.008L62.5883 179.227L47 164.5V109.197L90.1617 150.008Z" fill="white"/>
<path d="M117.735 120.79L90.1617 150.008L47 109.197V53.815L117.735 120.79Z" fill="white"/>
<path d="M145.387 91.65L117.735 120.79L47 53.815V47H98.1517L145.387 91.65Z" fill="white"/>
<path d="M172.96 62.4317L145.387 91.65L98.1517 47H188L172.96 62.4317Z" fill="white"/>
<path d="M180.167 195.833L47 329H137.24H313.333L180.167 195.833Z" fill="white"/>
<path d="M201.16 329H137.24L92.12 283.958L124.08 251.998L201.16 329Z" fill="white"/>
<path d="M265.237 329H201.16L124.08 251.998L156.04 220.038L265.237 329Z" fill="white"/>
<path d="M329 329H265.237L156.04 220.038L188 188L329 329Z" fill="white"/>
</svg>
