<svg width="480" height="480" viewBox="0 0 480 480" fill="none" xmlns="http://www.w3.org/2000/svg">
<path d="M236.5 248.98C226.52 232.89 219.28 219.55 209.25 194.43C192.29 152 312.4 113.66 263.7 39.99C284.81 90.88 187.93 122.34 178.93 164.72C170.7 203.7 236.45 248.98 236.5 248.98Z" fill="white"/>
<path d="M238.78 172.7C236.86 197.86 261.07 211.27 261.77 229.65C262.33 244.61 247.3 257.08 247.3 257.08C247.3 257.08 274.58 251.72 283.09 228.9C292.54 203.56 264.75 186.21 267.61 165.92C270.28 146.54 327.92 110.49 327.92 110.49C327.92 110.49 243.11 116.11 238.78 172.7Z" fill="white"/>
<path d="M320.84 250.55C338.38 246.61 353.17 257.78 353.17 270.65C353.17 299.66 312.96 327.08 312.96 327.08C312.96 327.08 375.21 319.66 375.21 272.03C375.21 240.53 344.64 232.66 320.84 250.55Z" fill="white"/>
<path d="M291.29 273.95C291.29 273.95 310.7 260.12 315.87 254.93C268.24 265.04 159.49 266.4 159.49 257.62C159.49 249.53 194.56 241.24 194.56 241.24C194.56 241.24 116.83 240.12 116.83 263.05C116.83 286.95 218.58 288.66 291.29 273.95Z" fill="white"/>
<path d="M279.35 295.71C234.26 310.7 151.21 305.91 175.81 285.78C163.83 285.78 146.07 295.41 146.07 304.67C146.07 323.24 235.89 337.58 302.37 310.39L279.35 295.71Z" fill="white"/>
<path d="M186.86 327.39C170.5 327.39 159.91 337.93 159.91 345.61C159.91 369.52 257.51 371.93 296.18 347.66L271.6 331.34C242.71 344.04 170.14 345.79 186.86 327.39Z" fill="white"/>
<path d="M362.81 366.32C362.81 356.96 352.26 352.55 348.48 350.44C370.76 404.17 125.31 400 125.31 368.28C125.31 361.07 143.38 354.01 160.08 357.35L145.88 348.96C112.6 343.74 90 358.37 90 370.17C90 425.2 362.81 422.55 362.81 366.32Z" fill="white"/>
<path d="M390 386.04C348.54 426.99 243.41 441.91 137.69 416.61C243.41 461.64 389.5 436.28 390 386.04Z" fill="white"/>
</svg>
