<svg width="105" height="105" viewBox="0 0 105 105" fill="none" xmlns="http://www.w3.org/2000/svg">
<path d="M88.1104 6.41016L92.7852 17.9561L92.79 17.9502L100.5 37.0098L90 47.96L100.5 67.6504L82.5 78.3301V22.5H22.5V82.5H75.4727L73.874 83.4482L70.5195 100.5L17.4404 91.2598L4.5 14.5596L28.4297 4.62988L43.71 13.71L57.71 6.16016L62.1338 7.8584L65.6299 4.5L88.1104 6.41016Z" fill="white"/>
<path d="M29.9799 71.16H52.4799V74.91H29.9799V71.16ZM51.2799 29.97L47.9299 43.1L44.0999 29.97H40.2899L36.4499 43.1L33.1099 29.97H27.8599L34.2899 52.48H38.5099L42.1899 39.45L45.8299 52.48H50.0999L56.5199 29.97H51.2799ZM57.4599 49.27L60.3899 45.76C62.2304 47.4597 64.6254 48.4334 67.1299 48.5C69.1299 48.5 70.3899 47.7 70.3899 46.37V46.31C70.3899 45.05 69.6099 44.41 65.8399 43.44C61.2899 42.28 58.3599 41.02 58.3599 36.54V36.47C58.3599 32.38 61.6499 29.67 66.2599 29.67C69.303 29.6162 72.2686 30.6318 74.6399 32.54L72.0599 36.28C70.374 34.9611 68.3266 34.1868 66.1899 34.06C64.2899 34.06 63.2899 34.93 63.2899 36.06V36.13C63.2899 37.61 64.2899 38.13 68.1599 39.13C72.7399 40.33 75.3199 41.97 75.3199 45.91V45.97C75.3199 50.45 71.8999 52.97 67.0299 52.97C63.5046 52.9839 60.0977 51.6988 57.4599 49.36" fill="white"/>
</svg>
